<svg xmlns="http://www.w3.org/2000/svg" width="23.469" height="23.469" viewBox="0 0 23.469 23.469"><defs><style>.a{fill:#a1a1a1;}.b{fill:#fff;stroke:#fff;stroke-width:0.5px;}</style></defs><path class="a" d="M20.308,0H3.165A3.163,3.163,0,0,0,0,3.163V20.307a3.162,3.162,0,0,0,3.163,3.163H20.309a3.162,3.162,0,0,0,3.162-3.162V3.163A3.163,3.163,0,0,0,20.308,0Z" transform="translate(-0.002)"/><g transform="translate(5.479 5.486)"><g transform="translate(-0.993 -1)"><g transform="translate(0 0)"><path class="b" d="M5.017,183,3.308,184.7a1.812,1.812,0,0,1-2.563-2.562l3.417-3.417a1.812,1.812,0,0,1,2.562,0,.6.6,0,1,0,.854-.854,3.02,3.02,0,0,0-4.271,0l-3.417,3.417a3.02,3.02,0,0,0,4.272,4.271l1.708-1.708A.6.6,0,1,0,5.017,183Z" transform="translate(0.993 -171.947)"/><path class="b" d="M198.142-.116a3.021,3.021,0,0,0-4.272,0l-2.05,2.05a.6.6,0,0,0,.854.854l2.05-2.05A1.812,1.812,0,0,1,197.288,3.3l-3.759,3.759a1.812,1.812,0,0,1-2.562,0,.6.6,0,1,0-.854.854,3.02,3.02,0,0,0,4.271,0l3.759-3.759A3.02,3.02,0,0,0,198.142-.116Z" transform="translate(-184.529 1)"/></g></g></g></svg>