<svg xmlns="http://www.w3.org/2000/svg" xmlns:xlink="http://www.w3.org/1999/xlink" width="153.789" height="154" viewBox="0 0 153.789 154"><defs><style>.a{fill:#ff9102;}.b{fill:url(#a);}.c{fill:url(#b);}.d{fill:#c2cece;}.e{fill:url(#c);}.f{fill:url(#d);}.g{fill:url(#e);}.h{fill:url(#f);}</style><linearGradient id="a" x1="0.085" y1="1.113" x2="1.067" y2="0.07" gradientUnits="objectBoundingBox"><stop offset="0" stop-color="#fff"/><stop offset="1" stop-color="#e8efee"/></linearGradient><linearGradient id="b" x1="0.936" y1="-8.083" x2="-0.054" y2="-9.223" gradientUnits="objectBoundingBox"><stop offset="0" stop-color="#c2cece" stop-opacity="0"/><stop offset="0.179" stop-color="#afbcbc" stop-opacity="0.18"/><stop offset="1" stop-color="#5b6a6a"/></linearGradient><linearGradient id="c" x1="0.771" y1="0.781" x2="-0.083" y2="1.568" xlink:href="#b"/><linearGradient id="d" x1="0.463" y1="0.122" x2="0.463" y2="-0.454" gradientUnits="objectBoundingBox"><stop offset="0" stop-color="#ffc200"/><stop offset="0.268" stop-color="#fb0"/><stop offset="0.659" stop-color="#ffa801"/><stop offset="1" stop-color="#ff9102"/></linearGradient><linearGradient id="e" x1="0.462" y1="-0.977" x2="0.462" y2="-1.276" gradientUnits="objectBoundingBox"><stop offset="0" stop-color="#ffda64"/><stop offset="0.268" stop-color="#fb0"/><stop offset="0.659" stop-color="#ffa801"/><stop offset="1" stop-color="#ff9102"/></linearGradient><linearGradient id="f" x1="0.223" y1="0.976" x2="-0.501" y2="1.746" xlink:href="#b"/></defs><g transform="translate(-0.351)"><path class="a" d="M73.262,3.179.351,62.093V73.073H154.14V62.093L81.229,3.179A6.338,6.338,0,0,0,73.262,3.179Z" transform="translate(0 -1.238)"/><path class="b" d="M156.2,132.726H27.758a6.338,6.338,0,0,1-6.337-6.337V6.337A6.338,6.338,0,0,1,27.758,0H156.2a6.338,6.338,0,0,1,6.337,6.337V126.389A6.337,6.337,0,0,1,156.2,132.726Z" transform="translate(-14.733 0)"/><path class="c" d="M162.536,408.463v2.467a7.4,7.4,0,0,1-7.4,7.4H28.823a7.4,7.4,0,0,1-7.4-7.4v-2.467Z" transform="translate(-14.733 -285.605)"/><g transform="translate(36.474 20.068)"><rect class="d" width="81.543" height="4.648"/><rect class="d" width="81.543" height="4.648" transform="translate(0 18.589)"/><rect class="d" width="81.543" height="4.648" transform="translate(0 37.602)"/><rect class="d" width="81.543" height="4.648" transform="translate(0 56.614)"/></g><path class="e" d="M382.538,187.7a25.876,25.876,0,0,1-16.619-6.013l-1.759.309,38.025,38.025v-41.31A25.917,25.917,0,0,1,382.538,187.7Z" transform="translate(-254.381 -124.955)"/><path class="f" d="M154.14,202.791v86.667A6.34,6.34,0,0,1,147.8,295.8H6.688a6.34,6.34,0,0,1-6.337-6.337V202.791l77.74,61.317Z" transform="translate(0 -141.795)"/><path class="g" d="M156.676,364.717,85.459,307.3a6.338,6.338,0,0,0-7.956,0l-72.3,58.3a6.324,6.324,0,0,0,4.879,2.293H151.193A6.329,6.329,0,0,0,156.676,364.717Z" transform="translate(-3.391 -213.885)"/><path class="h" d="M23.4,128.364V8.313a6.338,6.338,0,0,1,6.337-6.337H158.173a6.3,6.3,0,0,1,3.379.983A6.327,6.327,0,0,0,156.2,0H27.758a6.338,6.338,0,0,0-6.337,6.337V126.389a6.327,6.327,0,0,0,2.958,5.355A6.3,6.3,0,0,1,23.4,128.364Z" transform="translate(-14.733)"/></g></svg>