<svg xmlns="http://www.w3.org/2000/svg" width="23.469" height="23.469" viewBox="0 0 23.469 23.469"><defs><style>.a{fill:#a1a1a1;}</style></defs><path class="a" d="M20.308,0H3.165A3.163,3.163,0,0,0,0,3.163V20.307a3.162,3.162,0,0,0,3.163,3.163H11.62l.014-8.387H9.455a.514.514,0,0,1-.514-.512l-.01-2.7a.514.514,0,0,1,.514-.516H11.62V8.739c0-3.031,1.851-4.682,4.555-4.682h2.219a.514.514,0,0,1,.514.514V6.851a.514.514,0,0,1-.514.514H17.033c-1.471,0-1.755.7-1.755,1.724v2.261h3.231a.514.514,0,0,1,.511.575l-.32,2.7a.514.514,0,0,1-.511.454h-2.9l-.014,8.387h5.031a3.162,3.162,0,0,0,3.162-3.162V3.163A3.163,3.163,0,0,0,20.308,0Z" transform="translate(-0.002)"/></svg>