<svg xmlns="http://www.w3.org/2000/svg" width="23.075" height="23.075" viewBox="0 0 23.075 23.075"><defs><style>.a{fill:#fff;}</style></defs><path class="a" d="M20.988,0H2.087A2.087,2.087,0,0,0,0,2.087v18.9a2.087,2.087,0,0,0,2.087,2.087h18.9a2.087,2.087,0,0,0,2.087-2.087V2.087A2.087,2.087,0,0,0,20.988,0ZM7.14,19.925a.607.607,0,0,1-.607.607H3.947a.607.607,0,0,1-.607-.607V9.085a.607.607,0,0,1,.607-.607H6.533a.607.607,0,0,1,.607.607ZM5.24,7.456A2.456,2.456,0,1,1,7.7,5,2.456,2.456,0,0,1,5.24,7.456ZM20.653,19.973a.559.559,0,0,1-.559.559H17.32a.559.559,0,0,1-.559-.559V14.889c0-.758.222-3.324-1.982-3.324-1.71,0-2.057,1.756-2.127,2.544v5.864a.559.559,0,0,1-.559.559H9.411a.559.559,0,0,1-.559-.559V9.036a.559.559,0,0,1,.559-.559h2.684a.559.559,0,0,1,.559.559v.946A3.809,3.809,0,0,1,16.236,8.3c4.443,0,4.418,4.151,4.418,6.432v5.246Z"/></svg>