<svg xmlns="http://www.w3.org/2000/svg">
    <defs>
        <g id="fb">
            <path class="a" d="M20.308,0H3.165A3.163,3.163,0,0,0,0,3.163V20.307a3.162,3.162,0,0,0,3.163,3.163H11.62l.014-8.387H9.455a.514.514,0,0,1-.514-.512l-.01-2.7a.514.514,0,0,1,.514-.516H11.62V8.739c0-3.031,1.851-4.682,4.555-4.682h2.219a.514.514,0,0,1,.514.514V6.851a.514.514,0,0,1-.514.514H17.033c-1.471,0-1.755.7-1.755,1.724v2.261h3.231a.514.514,0,0,1,.511.575l-.32,2.7a.514.514,0,0,1-.511.454h-2.9l-.014,8.387h5.031a3.162,3.162,0,0,0,3.162-3.162V3.163A3.163,3.163,0,0,0,20.308,0Z" transform="translate(-0.002)"/>
        </g>
        <g id="youtube">
            <path class="a" d="M16.5,23c-.1,0-10.332-.008-12.911-.7A4.126,4.126,0,0,1,.68,19.4,43.264,43.264,0,0,1,0,11.5,43.413,43.413,0,0,1,.68,3.6,4.219,4.219,0,0,1,3.588.677C6.141.008,16.4,0,16.5,0S26.859.008,29.411.7A4.126,4.126,0,0,1,32.32,3.6,41.244,41.244,0,0,1,33,11.527a43.419,43.419,0,0,1-.68,7.9,4.123,4.123,0,0,1-2.909,2.894C26.859,22.992,16.6,23,16.5,23ZM12.983,6.333V16.665l9.01-5.166Z" transform="translate(-0.043 0.084)"/>
        </g>
        <g id="search">
            <path transform="translate(-940 -683)" class="st0" d="M950,683c5.5,0,10,4.5,10,10s-4.5,10-10,10s-10-4.5-10-10S944.5,683,950,683z
	 M950,684.5c4.7,0,8.5,3.8,8.5,8.5s-3.8,8.5-8.5,8.5s-8.5-3.8-8.5-8.5S945.3,684.5,950,684.5z M957.5,699.5l4,4"/>
        </g>
        <g id="linkedin">
            <path class="a" d="M20.988,0H2.087A2.087,2.087,0,0,0,0,2.087v18.9a2.087,2.087,0,0,0,2.087,2.087h18.9a2.087,2.087,0,0,0,2.087-2.087V2.087A2.087,2.087,0,0,0,20.988,0ZM7.14,19.925a.607.607,0,0,1-.607.607H3.947a.607.607,0,0,1-.607-.607V9.085a.607.607,0,0,1,.607-.607H6.533a.607.607,0,0,1,.607.607ZM5.24,7.456A2.456,2.456,0,1,1,7.7,5,2.456,2.456,0,0,1,5.24,7.456ZM20.653,19.973a.559.559,0,0,1-.559.559H17.32a.559.559,0,0,1-.559-.559V14.889c0-.758.222-3.324-1.982-3.324-1.71,0-2.057,1.756-2.127,2.544v5.864a.559.559,0,0,1-.559.559H9.411a.559.559,0,0,1-.559-.559V9.036a.559.559,0,0,1,.559-.559h2.684a.559.559,0,0,1,.559.559v.946A3.809,3.809,0,0,1,16.236,8.3c4.443,0,4.418,4.151,4.418,6.432v5.246Z"/>
        </g>
        <g id="add-to-cart">
            <path class="a" d="M21.575,25.093H3.983l-.261-2.913a.924.924,0,0,0-.92-.841H.924a.924.924,0,0,0,0,1.848H1.957l1.063,11.84A3.555,3.555,0,0,0,4.35,37.435a2.8,2.8,0,1,0,4.84.77h5.057a2.8,2.8,0,1,0,2.634-1.848H6.562a1.716,1.716,0,0,1-1.578-1.04l14.767-.868a.924.924,0,0,0,.842-.7l1.878-7.51A.924.924,0,0,0,21.575,25.093ZM6.556,40.112a.953.953,0,1,1,.953-.953A.954.954,0,0,1,6.556,40.112Zm10.326,0a.953.953,0,1,1,.953-.953A.954.954,0,0,1,16.882,40.112Zm2.084-7.468-14.23.836-.587-6.539H20.392Z" transform="translate(0 -21.338)"/>
        </g>
        <g id="insta">
            <path d="M15.1,0H8C3.6,0,0,3.6,0,8v7.1c0,4.4,3.6,8,8,8h7.1c4.4,0,8-3.6,8-8V8C23.1,3.6,19.5,0,15.1,0z M21.8,15.1
		c0,3.7-3,6.8-6.8,6.8H8c-3.7,0-6.8-3-6.8-6.8V8c0-3.7,3-6.8,6.8-6.8h7.1c3.7,0,6.8,3,6.8,6.8V15.1z"/>
            <circle cx="17.7" cy="5.4" r="1.2"/>
            <path d="M11.5,5.8c-3.2,0-5.8,2.6-5.8,5.8c0,3.2,2.6,5.8,5.8,5.8c3.2,0,5.8-2.6,5.8-5.8C17.3,8.4,14.7,5.8,11.5,5.8z M11.5,16.1
		C9,16.1,7,14,7,11.5C7,9,9,7,11.5,7c2.5,0,4.5,2,4.5,4.5C16.1,14,14,16.1,11.5,16.1z"/>
        </g>
         <g id="quantity">
            <path id="Path_2" data-name="Path 2" d="M10.383-6.586a.258.258,0,0,1,0,.4L5.461-1.266a.234.234,0,0,1-.375,0L.164-6.187a.258.258,0,0,1,0-.4l.469-.445a.241.241,0,0,1,.4,0L5.273-2.812,9.516-7.031a.241.241,0,0,1,.4,0Z" transform="translate(-0.07 7.137)" opacity="0.7"/>
        </g>
    </defs>
</svg>