<svg xmlns="http://www.w3.org/2000/svg" width="33" height="23" viewBox="0 0 33 23"><defs><style>.a{fill:#fff;}</style></defs><g transform="translate(0 -0.131)"><path class="a" d="M16.5,23c-.1,0-10.333-.008-12.912-.7A4.126,4.126,0,0,1,.679,19.4,43.249,43.249,0,0,1,0,11.5,43.412,43.412,0,0,1,.679,3.6,4.219,4.219,0,0,1,3.588.677C6.141.008,16.4,0,16.5,0s10.36.008,12.912.7A4.127,4.127,0,0,1,32.32,3.6,41.235,41.235,0,0,1,33,11.527a43.412,43.412,0,0,1-.679,7.9,4.126,4.126,0,0,1-2.909,2.9C26.859,22.992,16.6,23,16.5,23ZM12.983,6.334V16.666l9.01-5.166Z" transform="translate(0 0.131)"/></g></svg>